<mxfile host="app.diagrams.net" agent="Mozilla/5.0 (Macintosh; Intel Mac OS X 10_15_7) AppleWebKit/537.36 (KHTML, like Gecko) Chrome/132.0.0.0 Safari/537.36" version="26.0.11">
  <diagram id="C5RBs43oDa-KdzZeNtuy" name="Page-1">
    <mxGraphModel dx="516" dy="323" grid="1" gridSize="10" guides="1" tooltips="1" connect="1" arrows="1" fold="1" page="1" pageScale="1" pageWidth="827" pageHeight="1169" math="0" shadow="0">
      <root>
        <mxCell id="WIyWlLk6GJQsqaUBKTNV-0" />
        <mxCell id="WIyWlLk6GJQsqaUBKTNV-1" parent="WIyWlLk6GJQsqaUBKTNV-0" />
        <mxCell id="OytdddmY2kulUYtLhQWJ-9" value="" style="edgeStyle=orthogonalEdgeStyle;rounded=0;orthogonalLoop=1;jettySize=auto;html=1;" edge="1" parent="WIyWlLk6GJQsqaUBKTNV-1" source="WIyWlLk6GJQsqaUBKTNV-3" target="OytdddmY2kulUYtLhQWJ-8">
          <mxGeometry relative="1" as="geometry" />
        </mxCell>
        <mxCell id="WIyWlLk6GJQsqaUBKTNV-3" value="Start" style="rounded=1;whiteSpace=wrap;html=1;fontSize=12;glass=0;strokeWidth=1;shadow=0;" parent="WIyWlLk6GJQsqaUBKTNV-1" vertex="1">
          <mxGeometry x="170" y="100" width="100" height="30" as="geometry" />
        </mxCell>
        <mxCell id="OytdddmY2kulUYtLhQWJ-12" value="" style="edgeStyle=orthogonalEdgeStyle;rounded=0;orthogonalLoop=1;jettySize=auto;html=1;entryX=0.5;entryY=0;entryDx=0;entryDy=0;" edge="1" parent="WIyWlLk6GJQsqaUBKTNV-1" source="OytdddmY2kulUYtLhQWJ-8" target="OytdddmY2kulUYtLhQWJ-13">
          <mxGeometry relative="1" as="geometry">
            <mxPoint x="220.0344827586207" y="250.0344827586208" as="targetPoint" />
          </mxGeometry>
        </mxCell>
        <mxCell id="OytdddmY2kulUYtLhQWJ-8" value="Student wants to check availability&amp;nbsp;of study spaces" style="whiteSpace=wrap;html=1;rounded=1;glass=0;strokeWidth=1;shadow=0;" vertex="1" parent="WIyWlLk6GJQsqaUBKTNV-1">
          <mxGeometry x="160" y="170" width="120" height="60" as="geometry" />
        </mxCell>
        <mxCell id="OytdddmY2kulUYtLhQWJ-16" value="" style="edgeStyle=orthogonalEdgeStyle;rounded=0;orthogonalLoop=1;jettySize=auto;html=1;" edge="1" parent="WIyWlLk6GJQsqaUBKTNV-1" source="OytdddmY2kulUYtLhQWJ-13" target="OytdddmY2kulUYtLhQWJ-15">
          <mxGeometry relative="1" as="geometry" />
        </mxCell>
        <mxCell id="OytdddmY2kulUYtLhQWJ-13" value="App Login" style="rounded=1;whiteSpace=wrap;html=1;" vertex="1" parent="WIyWlLk6GJQsqaUBKTNV-1">
          <mxGeometry x="175" y="260" width="90" height="35" as="geometry" />
        </mxCell>
        <mxCell id="OytdddmY2kulUYtLhQWJ-18" style="edgeStyle=orthogonalEdgeStyle;rounded=0;orthogonalLoop=1;jettySize=auto;html=1;entryX=1;entryY=0.5;entryDx=0;entryDy=0;fontFamily=Helvetica;" edge="1" parent="WIyWlLk6GJQsqaUBKTNV-1" source="OytdddmY2kulUYtLhQWJ-15" target="OytdddmY2kulUYtLhQWJ-13">
          <mxGeometry relative="1" as="geometry">
            <Array as="points">
              <mxPoint x="285" y="360" />
              <mxPoint x="285" y="278" />
            </Array>
          </mxGeometry>
        </mxCell>
        <mxCell id="OytdddmY2kulUYtLhQWJ-23" style="edgeStyle=orthogonalEdgeStyle;rounded=0;orthogonalLoop=1;jettySize=auto;html=1;entryX=0.5;entryY=1;entryDx=0;entryDy=0;" edge="1" parent="WIyWlLk6GJQsqaUBKTNV-1" source="OytdddmY2kulUYtLhQWJ-15" target="OytdddmY2kulUYtLhQWJ-22">
          <mxGeometry relative="1" as="geometry">
            <Array as="points">
              <mxPoint x="220" y="400" />
              <mxPoint x="413" y="400" />
            </Array>
          </mxGeometry>
        </mxCell>
        <mxCell id="OytdddmY2kulUYtLhQWJ-15" value="Authentication" style="rhombus;whiteSpace=wrap;html=1;rounded=1;" vertex="1" parent="WIyWlLk6GJQsqaUBKTNV-1">
          <mxGeometry x="170" y="330" width="100" height="60" as="geometry" />
        </mxCell>
        <mxCell id="OytdddmY2kulUYtLhQWJ-28" style="edgeStyle=orthogonalEdgeStyle;rounded=0;orthogonalLoop=1;jettySize=auto;html=1;entryX=0.5;entryY=1;entryDx=0;entryDy=0;" edge="1" parent="WIyWlLk6GJQsqaUBKTNV-1" source="OytdddmY2kulUYtLhQWJ-22" target="OytdddmY2kulUYtLhQWJ-26">
          <mxGeometry relative="1" as="geometry" />
        </mxCell>
        <mxCell id="OytdddmY2kulUYtLhQWJ-29" style="edgeStyle=orthogonalEdgeStyle;rounded=0;orthogonalLoop=1;jettySize=auto;html=1;entryX=0.5;entryY=1;entryDx=0;entryDy=0;" edge="1" parent="WIyWlLk6GJQsqaUBKTNV-1" source="OytdddmY2kulUYtLhQWJ-22" target="OytdddmY2kulUYtLhQWJ-27">
          <mxGeometry relative="1" as="geometry" />
        </mxCell>
        <mxCell id="OytdddmY2kulUYtLhQWJ-22" value="Student chooses the floor to check seat availability" style="whiteSpace=wrap;html=1;rounded=1;glass=0;strokeWidth=1;shadow=0;" vertex="1" parent="WIyWlLk6GJQsqaUBKTNV-1">
          <mxGeometry x="353" y="320" width="120" height="60" as="geometry" />
        </mxCell>
        <mxCell id="OytdddmY2kulUYtLhQWJ-32" style="edgeStyle=orthogonalEdgeStyle;rounded=0;orthogonalLoop=1;jettySize=auto;html=1;entryX=0.5;entryY=1;entryDx=0;entryDy=0;" edge="1" parent="WIyWlLk6GJQsqaUBKTNV-1" source="OytdddmY2kulUYtLhQWJ-26" target="OytdddmY2kulUYtLhQWJ-31">
          <mxGeometry relative="1" as="geometry">
            <Array as="points">
              <mxPoint x="350" y="180" />
              <mxPoint x="401" y="180" />
              <mxPoint x="401" y="160" />
            </Array>
          </mxGeometry>
        </mxCell>
        <mxCell id="OytdddmY2kulUYtLhQWJ-26" value="Seats available&amp;nbsp;" style="rounded=1;whiteSpace=wrap;html=1;" vertex="1" parent="WIyWlLk6GJQsqaUBKTNV-1">
          <mxGeometry x="310" y="200" width="80" height="60" as="geometry" />
        </mxCell>
        <mxCell id="OytdddmY2kulUYtLhQWJ-30" style="edgeStyle=orthogonalEdgeStyle;rounded=0;orthogonalLoop=1;jettySize=auto;html=1;entryX=1;entryY=0.5;entryDx=0;entryDy=0;" edge="1" parent="WIyWlLk6GJQsqaUBKTNV-1" source="OytdddmY2kulUYtLhQWJ-27" target="OytdddmY2kulUYtLhQWJ-22">
          <mxGeometry relative="1" as="geometry">
            <Array as="points">
              <mxPoint x="530" y="230" />
              <mxPoint x="530" y="350" />
            </Array>
          </mxGeometry>
        </mxCell>
        <mxCell id="OytdddmY2kulUYtLhQWJ-27" value="Too crowded" style="rounded=1;whiteSpace=wrap;html=1;" vertex="1" parent="WIyWlLk6GJQsqaUBKTNV-1">
          <mxGeometry x="430" y="200" width="80" height="60" as="geometry" />
        </mxCell>
        <mxCell id="OytdddmY2kulUYtLhQWJ-31" value="Go to the floor" style="rounded=1;whiteSpace=wrap;html=1;" vertex="1" parent="WIyWlLk6GJQsqaUBKTNV-1">
          <mxGeometry x="360" y="100" width="81" height="60" as="geometry" />
        </mxCell>
        <mxCell id="OytdddmY2kulUYtLhQWJ-33" value="Unsucessful" style="text;html=1;align=center;verticalAlign=middle;whiteSpace=wrap;rounded=0;rotation=90;fontSize=9;" vertex="1" parent="WIyWlLk6GJQsqaUBKTNV-1">
          <mxGeometry x="265" y="300" width="60" height="30" as="geometry" />
        </mxCell>
        <mxCell id="OytdddmY2kulUYtLhQWJ-35" value="Sucessful" style="text;html=1;align=center;verticalAlign=middle;whiteSpace=wrap;rounded=0;rotation=0;fontSize=9;" vertex="1" parent="WIyWlLk6GJQsqaUBKTNV-1">
          <mxGeometry x="290" y="390" width="60" height="30" as="geometry" />
        </mxCell>
      </root>
    </mxGraphModel>
  </diagram>
</mxfile>
